{"title":"42 2013 CAM XviD Feel-Free","uid":8395630,"size":763657311,"categoryP":"video","categoryS":"movies","magnet":"?xt=urn:btih:47f00dde73643cc54f1ad69d3c27da0e8951e14e&amp;dn=42+2013+CAM+XviD+Feel-Free&amp;tr=udp%3A%2F%2Ftracker.openbittorrent.com%3A80&amp;tr=udp%3A%2F%2Fopen.demonii.com%3A1337&amp;tr=udp%3A%2F%2Ftracker.coppersurfer.tk%3A6969&amp;tr=udp%3A%2F%2Fexodus.desync.com%3A6969","seeders":1,"leechers":0,"uploader":"Gh0stNet","files":6,"time":1366565259,"description":"Source:UnKnOwN Thanks\nSample:Never\nEncoder:Tony\n\n\n\nFormat                                   : AVI\nFormat/Info                              : Audio Video Interleave\nFile size                                : 727 MiB\nDuration                                 : 1h 57mn\nOverall bit rate                         : 868 Kbps\nWriting library                          : VirtualDub build 32817/release\n\nVideo\nID                                       : 0\nFormat                                   : MPEG-4 Visual\nFormat profile                           : Advanced Simple@L5\nFormat settings, BVOP                    : 2\nFormat settings, QPel                    : No\nFormat settings, GMC                     : No warppoints\nFormat settings, Matrix                  : Default (H.263)\nMuxing mode                              : Packed bitstream\nCodec ID                                 : XVID\nCodec ID/Hint                            : XviD\nDuration                                 : 1h 57mn\nBit rate                                 : 728 Kbps\nWidth                                    : 640 pixels\nHeight                                   : 328 pixels\nDisplay aspect ratio                     : 1.951\nFrame rate                               : 29.970 fps\nColor space                              : YUV\nChroma subsampling                       : 4:2:0\nBit depth                                : 8 bits\nScan type                                : Progressive\nCompression mode                         : Lossy\nBits/(Pixel*Frame)                       : 0.116\nStream size                              : 610 MiB (84%)\nWriting library                          : XviD 64\n\nAudio\nID                                       : 1\nFormat                                   : MPEG Audio\nFormat version                           : Version 1\nFormat profile                           : Layer 3\nCodec ID                                 : 55\nCodec ID/Hint                            : MP3\nDuration                                 : 1h 57mn\nBit rate mode                            : Constant\nBit rate                                 : 128 Kbps\nChannel(s)                               : 2 channels\nSampling rate                            : 48.0 KHz\nCompression mode                         : Lossy\nStream size                              : 107 MiB (15%)\nAlignment                                : Split accross interleaves\nInterleave, duration                     : 33 ms (1.00 video frame)\nInterleave, preload duration             : 500 ms\n\nScreens: &lt;a href=&quot;\nhttp://i.imgur.com/oOjmdfB.png&quot; rel=&quot;nofollow&quot; target=&quot;_NEW&quot;&gt;\nhttp://i.imgur.com/oOjmdfB.png&lt;/a&gt; &lt;a href=&quot;\nhttp://i.imgur.com/NXoA9ee.png&quot; rel=&quot;nofollow&quot; target=&quot;_NEW&quot;&gt;\nhttp://i.imgur.com/NXoA9ee.png&lt;/a&gt; &lt;a href=&quot;\nhttp://i.imgur.com/VFxmQQC.png&quot; rel=&quot;nofollow&quot; target=&quot;_NEW&quot;&gt;\nhttp://i.imgur.com/VFxmQQC.png&lt;/a&gt; &lt;a href=&quot;\nhttp://i.imgur.com/jvfT4cq.png&quot; rel=&quot;nofollow&quot; target=&quot;_NEW&quot;&gt;\nhttp://i.imgur.com/jvfT4cq.png&lt;/a&gt;\n","torrent":{"xt":"urn:btih:47f00dde73643cc54f1ad69d3c27da0e8951e14e","amp;dn":"42+2013+CAM+XviD+Feel-Free","amp;tr":["udp%3A%2F%2Ftracker.openbittorrent.com%3A80","udp%3A%2F%2Fopen.demonii.com%3A1337","udp%3A%2F%2Ftracker.coppersurfer.tk%3A6969","udp%3A%2F%2Fexodus.desync.com%3A6969"],"infoHash":"47f00dde73643cc54f1ad69d3c27da0e8951e14e","infoHashBuffer":{"type":"Buffer","data":[71,240,13,222,115,100,60,197,79,26,214,157,60,39,218,14,137,81,225,78]},"announce":[],"urlList":[]}}